<svg width="42" height="42" viewBox="0 0 42 42" fill="none" xmlns="http://www.w3.org/2000/svg">
<path fill-rule="evenodd" clip-rule="evenodd" d="M0.166504 21.0003C0.166504 9.50033 9.479 0.166992 20.9998 0.166992C32.4998 0.166992 41.8332 9.50033 41.8332 21.0003C41.8332 32.5212 32.4998 41.8337 20.9998 41.8337C9.479 41.8337 0.166504 32.5212 0.166504 21.0003ZM25.6457 24.8128L29.0207 14.1462C29.2498 13.417 28.5832 12.7295 27.854 12.9587L17.1873 16.292C16.7498 16.4378 16.3957 16.7712 16.2707 17.2087L12.9373 27.8962C12.7082 28.6045 13.3957 29.292 14.104 29.0628L24.729 25.7295C25.1665 25.6045 25.5207 25.2503 25.6457 24.8128Z" fill="#1F2259"/>
</svg>
