<svg width="20" height="21" viewBox="0 0 20 21" fill="none" xmlns="http://www.w3.org/2000/svg">
<path fill-rule="evenodd" clip-rule="evenodd" d="M14.9394 0.302032C16.2804 0.302032 17.5704 0.88539 18.5194 1.93213C19.4694 2.97667 20.0004 4.38553 20.0004 5.86043V14.5558C20.0004 17.6266 17.7304 20.1142 14.9394 20.1142H5.06043C2.26943 20.1142 0.000427246 17.6266 0.000427246 14.5558V5.86043C0.000427246 2.78956 2.25943 0.302032 5.06043 0.302032H14.9394ZM16.5304 7.50044L16.6104 7.41238C16.8494 7.09319 16.8494 6.63091 16.5994 6.31171C16.4604 6.14771 16.2694 6.04755 16.0704 6.02554C15.8604 6.01343 15.6604 6.09158 15.5094 6.24567L11.0004 10.2081C10.4204 10.7375 9.58943 10.7375 9.00043 10.2081L4.50043 6.24567C4.18943 5.99252 3.75943 6.02554 3.50043 6.32272C3.23043 6.6199 3.20043 7.09319 3.42943 7.42339L3.56043 7.56648L8.11043 11.4739C8.67043 11.9582 9.34943 12.2223 10.0604 12.2223C10.7694 12.2223 11.4604 11.9582 12.0194 11.4739L16.5304 7.50044Z" fill="black"/>
</svg>
