<svg width="30" height="30" viewBox="0 0 30 30" fill="none" xmlns="http://www.w3.org/2000/svg">
<path d="M15 2.5498C8.125 2.5498 2.5 8.1623 2.5 15.0748C2.5 21.3248 7.075 26.5123 13.05 27.4498V18.6998H9.875V15.0748H13.05V12.3123C13.05 9.17481 14.9125 7.4498 17.775 7.4498C19.1375 7.4498 20.5625 7.6873 20.5625 7.6873V10.7748H18.9875C17.4375 10.7748 16.95 11.7373 16.95 12.7248V15.0748H20.425L19.8625 18.6998H16.95V27.4498C19.8956 26.9846 22.5778 25.4817 24.5124 23.2124C26.4471 20.9431 27.5067 18.0569 27.5 15.0748C27.5 8.1623 21.875 2.5498 15 2.5498Z" fill="white"/>
</svg>
